<svg width="168" height="32" viewBox="0 0 168 32" fill="none" xmlns="http://www.w3.org/2000/svg">
<path fill-rule="evenodd" clip-rule="evenodd" d="M18.7531 0C17.6492 1.55213 17 3.45026 17 5.5C17 10.7467 21.2533 15 26.5 15C28.5497 15 30.4479 14.3508 32 13.2469V28C32 30.2091 30.2091 32 28 32H4C1.79086 32 0 30.2091 0 28V4C0 1.79086 1.79086 0 4 0H18.7531Z" fill="#171923"/>
<rect x="21" width="11" height="11" rx="5.5" fill="#100D1F"/>
<path d="M41.517 25V7.54545H53.0739V10.5881H45.2074V14.7472H52.3068V17.7898H45.2074V25H41.517ZM55.277 25V11.9091H58.7969V14.1932H58.9332C59.1719 13.3807 59.5724 12.767 60.1349 12.3523C60.6974 11.9318 61.3452 11.7216 62.0781 11.7216C62.2599 11.7216 62.456 11.733 62.6662 11.7557C62.8764 11.7784 63.0611 11.8097 63.2202 11.8494V15.071C63.0497 15.0199 62.8139 14.9744 62.5128 14.9347C62.2116 14.8949 61.9361 14.875 61.6861 14.875C61.152 14.875 60.6747 14.9915 60.2543 15.2244C59.8395 15.4517 59.5099 15.7699 59.2656 16.179C59.027 16.5881 58.9077 17.0597 58.9077 17.5938V25H55.277ZM68.4553 25.2472C67.62 25.2472 66.8757 25.1023 66.2223 24.8125C65.5689 24.517 65.0518 24.0824 64.6712 23.5085C64.2962 22.929 64.1087 22.2074 64.1087 21.3438C64.1087 20.6165 64.2422 20.0057 64.5092 19.5114C64.7763 19.017 65.1399 18.6193 65.6001 18.3182C66.0604 18.017 66.5831 17.7898 67.1683 17.6364C67.7592 17.483 68.3786 17.375 69.0263 17.3125C69.7876 17.233 70.4013 17.1591 70.8672 17.0909C71.3331 17.017 71.6712 16.9091 71.8814 16.767C72.0916 16.625 72.1967 16.4148 72.1967 16.1364V16.0852C72.1967 15.5455 72.0263 15.1278 71.6854 14.8324C71.3501 14.5369 70.8729 14.3892 70.2536 14.3892C69.6001 14.3892 69.0803 14.5341 68.6939 14.8239C68.3075 15.108 68.0518 15.4659 67.9268 15.8977L64.5689 15.625C64.7393 14.8295 65.0746 14.142 65.5746 13.5625C66.0746 12.9773 66.7195 12.5284 67.5092 12.2159C68.3047 11.8977 69.2251 11.7386 70.2706 11.7386C70.9979 11.7386 71.6939 11.8239 72.3587 11.9943C73.0291 12.1648 73.6229 12.429 74.1399 12.7869C74.6626 13.1449 75.0746 13.6051 75.3757 14.1676C75.6768 14.7244 75.8274 15.392 75.8274 16.1705V25H72.3842V23.1847H72.282C72.0717 23.5938 71.7905 23.9545 71.4382 24.267C71.0859 24.5739 70.6626 24.8153 70.1683 24.9915C69.674 25.1619 69.103 25.2472 68.4553 25.2472ZM69.495 22.7415C70.0291 22.7415 70.5007 22.6364 70.9098 22.4261C71.3189 22.2102 71.6399 21.9205 71.8729 21.5568C72.1058 21.1932 72.2223 20.7812 72.2223 20.321V18.9318C72.1087 19.0057 71.9524 19.0739 71.7536 19.1364C71.5604 19.1932 71.3416 19.2472 71.0973 19.2983C70.853 19.3437 70.6087 19.3864 70.3643 19.4261C70.12 19.4602 69.8984 19.4915 69.6996 19.5199C69.2734 19.5824 68.9013 19.6818 68.5831 19.8182C68.2649 19.9545 68.0178 20.1392 67.8416 20.3722C67.6655 20.5994 67.5774 20.8835 67.5774 21.2244C67.5774 21.7188 67.7564 22.0966 68.1143 22.358C68.478 22.6136 68.9382 22.7415 69.495 22.7415ZM84.5589 25.2557C83.218 25.2557 82.0646 24.9716 81.0987 24.4034C80.1385 23.8295 79.3999 23.0341 78.8828 22.017C78.3714 21 78.1158 19.8295 78.1158 18.5057C78.1158 17.1648 78.3743 15.9886 78.8913 14.9773C79.4141 13.9602 80.1555 13.1676 81.1158 12.5994C82.076 12.0256 83.218 11.7386 84.5419 11.7386C85.6839 11.7386 86.6839 11.946 87.5419 12.3608C88.3999 12.7756 89.0788 13.358 89.5788 14.108C90.0788 14.858 90.3544 15.7386 90.4055 16.75H86.9794C86.8828 16.0966 86.6271 15.571 86.2124 15.1733C85.8033 14.7699 85.2663 14.5682 84.6016 14.5682C84.0391 14.5682 83.5476 14.7216 83.1271 15.0284C82.7124 15.3295 82.3885 15.7699 82.1555 16.3494C81.9226 16.929 81.8061 17.6307 81.8061 18.4545C81.8061 19.2898 81.9197 20 82.147 20.5852C82.38 21.1705 82.7067 21.6165 83.1271 21.9233C83.5476 22.2301 84.0391 22.3835 84.6016 22.3835C85.0163 22.3835 85.3885 22.2983 85.718 22.1278C86.0533 21.9574 86.3288 21.7102 86.5447 21.3864C86.7663 21.0568 86.9112 20.6619 86.9794 20.2017H90.4055C90.3487 21.2017 90.076 22.0824 89.5874 22.8438C89.1044 23.5994 88.4368 24.1903 87.5845 24.6165C86.7322 25.0426 85.7237 25.2557 84.5589 25.2557ZM99.6932 11.9091V14.6364H91.8097V11.9091H99.6932ZM93.5994 8.77273H97.2301V20.9773C97.2301 21.3125 97.2813 21.5739 97.3835 21.7614C97.4858 21.9432 97.6278 22.071 97.8097 22.1449C97.9972 22.2187 98.2131 22.2557 98.4574 22.2557C98.6278 22.2557 98.7983 22.2415 98.9688 22.2131C99.1392 22.179 99.2699 22.1534 99.3608 22.1364L99.9318 24.8381C99.75 24.8949 99.4943 24.9602 99.1648 25.0341C98.8352 25.1136 98.4347 25.1619 97.9631 25.179C97.0881 25.2131 96.321 25.0966 95.6619 24.8295C95.0085 24.5625 94.5 24.1477 94.1364 23.5852C93.7727 23.0227 93.5938 22.3125 93.5994 21.4545V8.77273ZM102.058 25V11.9091H105.689V25H102.058ZM103.882 10.2216C103.342 10.2216 102.879 10.0426 102.493 9.68466C102.112 9.32102 101.922 8.88636 101.922 8.38068C101.922 7.88068 102.112 7.4517 102.493 7.09375C102.879 6.73011 103.342 6.54829 103.882 6.54829C104.422 6.54829 104.882 6.73011 105.263 7.09375C105.649 7.4517 105.842 7.88068 105.842 8.38068C105.842 8.88636 105.649 9.32102 105.263 9.68466C104.882 10.0426 104.422 10.2216 103.882 10.2216ZM114.512 25.2557C113.188 25.2557 112.043 24.9744 111.077 24.4119C110.117 23.8437 109.376 23.054 108.853 22.0426C108.33 21.0256 108.069 19.8466 108.069 18.5057C108.069 17.1534 108.33 15.9716 108.853 14.9602C109.376 13.9432 110.117 13.1534 111.077 12.5909C112.043 12.0227 113.188 11.7386 114.512 11.7386C115.836 11.7386 116.978 12.0227 117.938 12.5909C118.904 13.1534 119.648 13.9432 120.171 14.9602C120.694 15.9716 120.955 17.1534 120.955 18.5057C120.955 19.8466 120.694 21.0256 120.171 22.0426C119.648 23.054 118.904 23.8437 117.938 24.4119C116.978 24.9744 115.836 25.2557 114.512 25.2557ZM114.529 22.4432C115.131 22.4432 115.634 22.2727 116.038 21.9318C116.441 21.5852 116.745 21.1136 116.95 20.517C117.16 19.9205 117.265 19.2415 117.265 18.4801C117.265 17.7188 117.16 17.0398 116.95 16.4432C116.745 15.8466 116.441 15.375 116.038 15.0284C115.634 14.6818 115.131 14.5085 114.529 14.5085C113.921 14.5085 113.41 14.6818 112.995 15.0284C112.586 15.375 112.276 15.8466 112.066 16.4432C111.862 17.0398 111.759 17.7188 111.759 18.4801C111.759 19.2415 111.862 19.9205 112.066 20.517C112.276 21.1136 112.586 21.5852 112.995 21.9318C113.41 22.2727 113.921 22.4432 114.529 22.4432ZM126.947 17.4318V25H123.316V11.9091H126.776V14.2188H126.93C127.219 13.4574 127.705 12.8551 128.387 12.4119C129.069 11.9631 129.896 11.7386 130.867 11.7386C131.776 11.7386 132.569 11.9375 133.245 12.3352C133.921 12.733 134.447 13.3011 134.822 14.0398C135.197 14.7727 135.384 15.6477 135.384 16.6648V25H131.754V17.3125C131.759 16.5114 131.555 15.8864 131.14 15.4375C130.725 14.983 130.154 14.7557 129.427 14.7557C128.938 14.7557 128.506 14.8608 128.131 15.071C127.762 15.2812 127.472 15.5881 127.262 15.9915C127.058 16.3892 126.952 16.8693 126.947 17.4318ZM146.877 25H142.923L148.948 7.54545H153.704L159.721 25H155.766L151.394 11.5341H151.258L146.877 25ZM146.63 18.1392H155.971V21.0199H146.63V18.1392ZM165.512 7.54545V25H161.822V7.54545H165.512Z" fill="black"/>
</svg>
